<svg xmlns="http://www.w3.org/2000/svg" xmlns:xlink="http://www.w3.org/1999/xlink" width="72" height="47" viewBox="0 0 72 47">
  <defs>
    <filter id="Rectangle_2906" x="0" y="0" width="72" height="47" filterUnits="userSpaceOnUse">
      <feOffset dy="3" input="SourceAlpha"/>
      <feGaussianBlur stdDeviation="3" result="blur"/>
      <feFlood flood-opacity="0.161"/>
      <feComposite operator="in" in2="blur"/>
      <feComposite in="SourceGraphic"/>
    </filter>
  </defs>
  <g id="Group_4207" data-name="Group 4207" transform="translate(-303 -215)">
    <g transform="matrix(1, 0, 0, 1, 303, 215)" filter="url(#Rectangle_2906)">
      <g id="Rectangle_2906-2" data-name="Rectangle 2906" transform="translate(9 6)" fill="#fff" stroke="#42c9dd" stroke-width="1">
        <rect width="54" height="29" rx="5" stroke="none"/>
        <rect x="0.5" y="0.5" width="53" height="28" rx="4.5" fill="none"/>
      </g>
    </g>
    <text id="Add" transform="translate(333.59 239.5)" fill="#0f9eb4" font-size="14" font-family="Helvetica"><tspan x="0" y="0">Add</tspan></text>
    <path id="math-plus" d="M3.7,0H6.483a.331.331,0,0,1,.331.331v3.03H9.849a.331.331,0,0,1,.331.331V6.477a.331.331,0,0,1-.331.331H6.813v3.03a.331.331,0,0,1-.331.331H3.7a.331.331,0,0,1-.331-.331V6.808H.331A.331.331,0,0,1,0,6.477V3.692A.331.331,0,0,1,.331,3.36H3.366V.331A.331.331,0,0,1,3.7,0Z" transform="translate(319.41 229.915)" fill="#0f9eb4"/>
  </g>
</svg>
