<svg xmlns="http://www.w3.org/2000/svg" width="27.876" height="18.772" viewBox="0 0 27.876 18.772">
  <g id="group" transform="translate(0 0.004)">
    <path id="Path_3753" data-name="Path 3753" d="M19.5,2.148a5.25,5.25,0,0,1,2.8.49,2.639,2.639,0,0,1,1.23,2.5v1.1c0,.492-.018.506.161.765a.854.854,0,0,1,.211.461,5.424,5.424,0,0,1,.068.964c.007.513-.188.66-.449,1.075l-1.109,1.767c-.345.551-.658.887-.522,1.586.3,1.55,4.744,2.423,5.985,2.975v2.936h-3.61c0-.554.2-3.306-.1-3.533-3.723-2.748-8.654-1.218-4.887-7.088a4.9,4.9,0,0,0,.515-1.232A8.2,8.2,0,0,0,19.5,2.148Zm-11.127,0a5.25,5.25,0,0,0-2.8.49,2.639,2.639,0,0,0-1.23,2.5v1.1c0,.492.018.506-.161.765a.87.87,0,0,0-.211.461,5.424,5.424,0,0,0-.068.964c-.007.513.188.66.449,1.075l1.109,1.767c.345.551.658.887.522,1.586C5.679,14.4,1.241,15.278,0,15.83v2.936H3.608c0-.554-.2-3.306.1-3.533,3.723-2.748,8.654-1.218,4.887-7.088a4.9,4.9,0,0,1-.515-1.232,8.272,8.272,0,0,1,.295-4.765ZM4.549,18.765V15.841c1.4-.622,6.877-2,7.22-3.746.154-.787-.2-1.168-.59-1.79L9.926,8.31c-.293-.47-.515-.635-.506-1.214a7.058,7.058,0,0,1,.057-.96A1.3,1.3,0,0,1,9.795,5.4c.141-.216.125-.281.125-.778V3.385A2.971,2.971,0,0,1,11.335.551a6.366,6.366,0,0,1,5.232.016,2.981,2.981,0,0,1,1.389,2.818V4.623c0,.558-.02.572.182.864a.991.991,0,0,1,.241.52A6.173,6.173,0,0,1,18.455,7.1c.009.579-.211.746-.506,1.214L16.7,10.3c-.388.622-.744,1-.588,1.79.345,1.749,5.355,2.734,6.752,3.358v3.315l-18.315,0Z" fill="#b6b6b6" fill-rule="evenodd"/>
  </g>
</svg>
