<svg xmlns="http://www.w3.org/2000/svg" width="110.34" height="16.526" viewBox="0 0 110.34 16.526">
  <g id="Group_4208" data-name="Group 4208" transform="translate(-35.818 -98.299)">
    <text id="Add_Contacts" data-name="Add Contacts" transform="translate(61.158 111.655)" fill="#b6b6b6" font-size="14" font-family="Helvetica"><tspan x="0" y="0">Add Contacts</tspan></text>
    <path id="contacts" d="M14.233,10.79h1.059a.457.457,0,0,1,.159.027.43.43,0,0,1,.165.1h0a.426.426,0,0,1,.1.164h0a.5.5,0,0,1,.027.159v2.138a.4.4,0,0,1-.015.112l-.008.031a.418.418,0,0,1-.1.16.44.44,0,0,1-.109.081.394.394,0,0,1-.18.043h-1.1v.176a2.554,2.554,0,0,1-2.545,2.545H2.546A2.554,2.554,0,0,1,0,13.981V2.554A2.554,2.554,0,0,1,2.545,0h9.142a2.554,2.554,0,0,1,2.545,2.545v.246h1.059a.442.442,0,0,1,.194.043.428.428,0,0,1,.165.134h0a.475.475,0,0,1,.074.141h0a.481.481,0,0,1,.024.149V5.4a.375.375,0,0,1-.026.134.269.269,0,0,1-.024.054.41.41,0,0,1-.106.126.509.509,0,0,1-.075.048h0a.4.4,0,0,1-.179.044h-1.1v.941h1.059a.453.453,0,0,1,.194.043h0a.437.437,0,0,1,.165.134h0a.465.465,0,0,1,.067.12.449.449,0,0,1,.03.16V9.353a.4.4,0,0,1-.043.179.434.434,0,0,1-.079.11h0a.393.393,0,0,1-.112.081h0a.4.4,0,0,1-.177.043h-1.1v1.02Zm-7.116-7.1A4.571,4.571,0,1,1,3.891,5.036,4.571,4.571,0,0,1,7.117,3.692ZM9.895,5.481a3.93,3.93,0,0,0-5.915,5.136,13.96,13.96,0,0,0,1.939-.606A1.588,1.588,0,0,0,6.024,9.8c.052-.122.1-.255.134-.346a4.356,4.356,0,0,1-.347-.495l-.351-.559a1.032,1.032,0,0,1-.2-.511A.4.4,0,0,1,5.3,7.711a.358.358,0,0,1,.2-.183,8.589,8.589,0,0,1-.017-1.006A1.5,1.5,0,0,1,5.519,6.3a1.344,1.344,0,0,1,.594-.757,1.814,1.814,0,0,1,.5-.22c.112-.032-.1-.389.02-.4a2.869,2.869,0,0,1,1.851.874,1.37,1.37,0,0,1,.344.862L8.8,7.563h0a.251.251,0,0,1,.184.191.79.79,0,0,1-.1.48h0v.012l-.4.66A3.485,3.485,0,0,1,8,9.579l.054.077a2.4,2.4,0,0,0,.269.337A.036.036,0,0,1,8.328,10a12.606,12.606,0,0,0,1.941.609A3.932,3.932,0,0,0,9.895,5.481ZM11.688.957H2.546A1.6,1.6,0,0,0,.957,2.545V13.972A1.6,1.6,0,0,0,2.545,15.56h9.142a1.6,1.6,0,0,0,1.589-1.578V2.554a1.6,1.6,0,0,0-1.588-1.6Z" transform="translate(35.818 98.299)" fill="#b6b6b6"/>
  </g>
</svg>
